<svg width="385" height="110" viewBox="0 0 385 110" fill="none" xmlns="http://www.w3.org/2000/svg">
  <path
    d="M174.165 21.6729H140.472V110H113.994V21.6729H80.2461V0.101562H174.165V21.6729ZM243.772 63.4219H244.694V0.101562H271.498V110H248.71L204.49 46.5723H203.785V110H176.928V0.101562H200.041L243.772 63.4219ZM385 110H356.136L348.811 86.9248H310.437L303.126 110H274.262L311.753 0.101562H347.509L385 110ZM77.4785 21.5713H26.8574V44.1094H73.5186V65.7344H26.8574V88.3262H77.4785V109.897H0V0H77.4785V21.5713ZM316.828 66.749H342.405L330.038 27.791H329.17L316.828 66.749Z"
    fill="currentColor" />
</svg>
