<svg width="186" height="24" viewBox="0 0 186 24" fill="none" xmlns="http://www.w3.org/2000/svg">
<path d="M35.4424 4.59766H28.5742V22.8252H23.1777V4.59766H16.2988V0.146484H35.4424V4.59766ZM49.5596 13.2119H49.7471V0.145508H55.21V22.8242H50.5654L41.5527 9.73535H41.4092V22.8242H35.9346V0.145508H40.6455L49.5596 13.2119ZM78.0547 22.8242H72.1719L70.6787 18.0625H62.8574L61.3672 22.8242H55.4834L63.125 0.145508H70.4131L78.0547 22.8242ZM15.792 4.57617H5.47363V9.22656H14.9844V13.6895H5.47363V18.3516H15.792V22.8027H0L0 0.124023H15.792V4.57617ZM64.1602 13.8984H69.373L66.8525 5.85938H66.6758L64.1602 13.8984Z" fill="url(#paint0_linear_42_769)"/>
<path d="M93.1054 6.01495C92.9718 4.88622 92.4297 4.00998 91.4792 3.38621C90.5287 2.76244 89.3628 2.45056 87.9816 2.45056C86.9717 2.45056 86.0881 2.61392 85.3306 2.94066C84.5806 3.26739 83.994 3.71666 83.5707 4.28844C83.1549 4.86023 82.9469 5.50999 82.9469 6.23772C82.9469 6.84664 83.0917 7.37016 83.3813 7.80828C83.6784 8.23898 84.0571 8.59913 84.5175 8.88874C84.9779 9.17092 85.4606 9.40483 85.9655 9.59048C86.4705 9.7687 86.9346 9.9135 87.3579 10.0249L89.6747 10.6487C90.2688 10.8046 90.9297 11.0199 91.6574 11.2947C92.3926 11.5695 93.0943 11.9445 93.7626 12.4197C94.4384 12.8875 94.9953 13.489 95.4334 14.2242C95.8716 14.9593 96.0906 15.8616 96.0906 16.9309C96.0906 18.1636 95.7676 19.2775 95.1216 20.2725C94.4829 21.2676 93.5473 22.0584 92.3146 22.6451C91.0893 23.2317 89.6005 23.525 87.848 23.525C86.2143 23.525 84.7997 23.2614 83.6041 22.7342C82.416 22.2069 81.4803 21.4718 80.7972 20.5287C80.1214 19.5856 79.739 18.4903 79.6499 17.2428H82.5014C82.5756 18.1042 82.8652 18.8171 83.3702 19.3814C83.8826 19.9383 84.5286 20.3542 85.3083 20.6289C86.0955 20.8963 86.942 21.0299 87.848 21.0299C88.9024 21.0299 89.8492 20.8591 90.6883 20.5176C91.5275 20.1685 92.1921 19.6859 92.6822 19.0695C93.1723 18.4458 93.4173 17.718 93.4173 16.8863C93.4173 16.1289 93.2057 15.5126 92.7824 15.0373C92.3592 14.5621 91.8022 14.1759 91.1116 13.8789C90.421 13.5819 89.6747 13.3219 88.8727 13.0992L86.0658 12.2972C84.2836 11.7848 82.8727 11.0534 81.8331 10.1029C80.7934 9.15235 80.2736 7.90853 80.2736 6.37139C80.2736 5.09414 80.6189 3.98027 81.3095 3.02977C82.0076 2.07184 82.9432 1.32926 84.1165 0.802025C85.2972 0.267366 86.6153 3.64979e-05 88.0707 3.64979e-05C89.5411 3.64979e-05 90.848 0.263653 91.9916 0.790886C93.1352 1.31069 94.0411 2.02357 94.7094 2.92952C95.3852 3.83547 95.7416 4.86395 95.7787 6.01495H93.1054ZM97.4958 23.124V0.311921L111.263 0.311921V2.76244L100.258 2.76244V10.4704L110.55 10.4704V12.921L100.258 12.921V20.6735L111.441 20.6735V23.124L97.4958 23.124ZM131.462 7.4407L128.7 7.4407C128.536 6.64614 128.251 5.94811 127.842 5.34662C127.441 4.74513 126.951 4.24018 126.372 3.83176C125.8 3.41591 125.165 3.10403 124.467 2.8961C123.769 2.68818 123.041 2.58422 122.284 2.58422C120.903 2.58422 119.651 2.93323 118.53 3.63126C117.416 4.32929 116.529 5.35776 115.868 6.71669C115.215 8.07561 114.888 9.74271 114.888 11.718C114.888 13.6932 115.215 15.3603 115.868 16.7193C116.529 18.0782 117.416 19.1067 118.53 19.8047C119.651 20.5027 120.903 20.8517 122.284 20.8517C123.041 20.8517 123.769 20.7478 124.467 20.5398C125.165 20.3319 125.8 20.0237 126.372 19.6153C126.951 19.1995 127.441 18.6908 127.842 18.0893C128.251 17.4804 128.536 16.7824 128.7 15.9952H131.462C131.254 17.1611 130.876 18.2044 130.326 19.1252C129.777 20.046 129.093 20.8294 128.277 21.4755C127.46 22.1141 126.543 22.6005 125.525 22.9347C124.515 23.2688 123.435 23.4359 122.284 23.4359C120.338 23.4359 118.608 22.9607 117.093 22.0102C115.578 21.0596 114.387 19.7081 113.518 17.9557C112.649 16.2032 112.214 14.1239 112.214 11.718C112.214 9.31201 112.649 7.23278 113.518 5.48029C114.387 3.7278 115.578 2.3763 117.093 1.42579C118.608 0.475289 120.338 3.64979e-05 122.284 3.64979e-05C123.435 3.64979e-05 124.515 0.167117 125.525 0.501279C126.543 0.835441 127.46 1.32554 128.277 1.97159C129.093 2.61021 129.777 3.38992 130.326 4.31072C130.876 5.2241 131.254 6.26742 131.462 7.4407ZM147.76 0.311921L150.522 0.311921V15.416C150.522 16.9754 150.155 18.3678 149.419 19.593C148.692 20.8109 147.663 21.7725 146.334 22.478C145.005 23.176 143.445 23.525 141.656 23.525C139.866 23.525 138.307 23.176 136.978 22.478C135.648 21.7725 134.616 20.8109 133.881 19.593C133.153 18.3678 132.789 16.9754 132.789 15.416V0.311921L135.552 0.311921V15.1933C135.552 16.3071 135.797 17.2985 136.287 18.1673C136.777 19.0287 137.475 19.7081 138.381 20.2057C139.294 20.6958 140.386 20.9408 141.656 20.9408C142.926 20.9408 144.017 20.6958 144.931 20.2057C145.844 19.7081 146.542 19.0287 147.025 18.1673C147.515 17.2985 147.76 16.3071 147.76 15.1933V0.311921ZM152.902 23.124V0.311921L160.61 0.311921C162.392 0.311921 163.855 0.616379 164.999 1.2253C166.142 1.82679 166.989 2.65477 167.538 3.70923C168.088 4.7637 168.363 5.96297 168.363 7.30704C168.363 8.65111 168.088 9.84295 167.538 10.8826C166.989 11.9222 166.146 12.739 165.01 13.3331C163.874 13.9197 162.422 14.213 160.655 14.213H154.417V11.718H160.565C161.783 11.718 162.763 11.5398 163.506 11.1833C164.256 10.8269 164.798 10.3219 165.132 9.66845C165.474 9.00755 165.645 8.22041 165.645 7.30704C165.645 6.39366 165.474 5.59539 165.132 4.91221C164.791 4.22904 164.245 3.70181 163.495 3.33051C162.745 2.9518 161.754 2.76244 160.521 2.76244L155.664 2.76244V23.124L152.902 23.124ZM163.64 12.8764L169.254 23.124H166.046L160.521 12.8764L163.64 12.8764ZM169.829 23.124V0.311921L183.596 0.311921V2.76244L172.591 2.76244V10.4704L182.884 10.4704V12.921L172.591 12.921V20.6735L183.775 20.6735V23.124L169.829 23.124Z" fill="#858585"/>
<defs>
<linearGradient id="paint0_linear_42_769" x1="-10.852" y1="-22.8758" x2="76.2182" y2="19.6108" gradientUnits="userSpaceOnUse">
<stop stop-color="#101010"/>
<stop offset="1" stop-color="#909090"/>
</linearGradient>
</defs>
</svg>
