<svg width="188" height="52" viewBox="0 0 188 52" fill="none" xmlns="http://www.w3.org/2000/svg">
<path d="M176.894 36.8762C176.848 34.079 179.079 31.7742 181.876 31.7282C184.673 31.6823 186.978 33.9126 187.024 36.7098C187.07 39.5069 184.839 41.8118 182.042 41.8577C179.245 41.9037 176.94 39.6734 176.894 36.8762ZM181.055 33.6931C181.248 34.6129 181.921 35.5213 182.652 36.2044C183.38 36.885 184.293 37.4602 185.091 37.5971C185.418 37.653 185.729 37.4333 185.785 37.1061C185.841 36.7789 185.621 36.4682 185.294 36.412C184.83 36.3322 184.125 35.935 183.472 35.3255C182.823 34.7185 182.352 34.0182 182.231 33.4462C182.163 33.1213 181.844 32.9131 181.519 32.9813C181.195 33.0496 180.986 33.3683 181.055 33.6931ZM178.045 36.5731C177.989 36.9002 178.209 37.211 178.536 37.2672C179 37.347 179.705 37.7433 180.358 38.3527C181.007 38.9598 181.478 39.6609 181.599 40.2329C181.667 40.5577 181.986 40.7661 182.31 40.6979C182.635 40.6296 182.844 40.3101 182.775 39.9851C182.582 39.0654 181.909 38.1568 181.178 37.4739C180.45 36.7934 179.536 36.219 178.739 36.0821C178.412 36.0261 178.101 36.2459 178.045 36.5731Z" fill="#E5FF3C"/>
<path d="M2.10717 14.4824C4.93282 19.926 7.18004 29.8862 8.36259 37.028C8.732 39.259 9.07309 41.4927 9.41471 43.7283C9.51487 44.3838 9.84089 47.2447 9.84089 45.0152C9.84089 39.4325 9.96383 33.8995 10.8131 28.3691C11.2153 25.7497 11.9853 22.8464 13.5433 20.7038C15.3974 18.1539 17.5268 19.3367 18.5775 21.8228C20.5217 26.4229 20.914 31.4207 22.5195 36.1048C22.7733 36.8452 23.0812 37.3382 23.505 36.3985C24.476 34.2454 28.5112 17.555 29.8843 18.9972C31.4513 20.643 31.6672 24.3405 31.9486 26.4667C32.4693 30.4026 31.8437 37.1295 31.9486 41.0948" stroke="#E5FF3C" stroke-width="4.74815"/>
<path d="M95.1666 20.4408C95.1666 31.1152 86.0637 43.5579 78.327 39.9598C75.053 38.4372 73.9778 35.1766 74.0159 31.554M74.0159 31.554C74.0442 28.856 74.6538 26.2191 75.2311 24.9414C77.6889 19.5019 84.3983 17.7315 86.7178 21.8543C88.8789 25.6955 82.9005 30.3871 74.0159 31.554Z" stroke="#E5FF3C" stroke-width="4.74815" stroke-linecap="square" stroke-linejoin="round"/>
<path d="M160.52 31.5282C160.549 28.824 161.158 26.1811 161.735 24.9004C164.191 19.4484 170.895 17.6739 173.213 21.8063C175.372 25.6562 169.398 30.3587 160.52 31.5282ZM160.52 31.5282C160.482 35.1592 161.557 38.4273 164.828 39.9534C167.609 41.2504 170.566 40.4678 173.213 38.4358" stroke="#E5FF3C" stroke-width="4.74815" stroke-linecap="square" stroke-linejoin="round"/>
<path d="M92.7208 42V18.5049H98.0134V22.4972H98.2887C98.7782 21.1512 99.5889 20.1008 100.721 19.3462C101.853 18.5814 103.204 18.199 104.774 18.199C106.365 18.199 107.706 18.5865 108.797 19.3615C109.899 20.1263 110.674 21.1716 111.122 22.4972H111.367C111.887 21.192 112.764 20.1518 113.998 19.3768C115.242 18.5916 116.716 18.199 118.419 18.199C120.58 18.199 122.345 18.8822 123.711 20.2487C125.078 21.6152 125.761 23.6088 125.761 26.2295V42H120.208V27.0861C120.208 25.6279 119.821 24.5622 119.046 23.8892C118.271 23.206 117.322 22.8644 116.201 22.8644C114.865 22.8644 113.82 23.2825 113.065 24.1187C112.32 24.9447 111.948 26.0205 111.948 27.3462V42H106.518V26.8567C106.518 25.6432 106.151 24.6744 105.417 23.9504C104.693 23.2264 103.744 22.8644 102.572 22.8644C101.776 22.8644 101.052 23.0683 100.4 23.4762C99.7469 23.8739 99.2269 24.4399 98.8393 25.1741C98.4518 25.8981 98.2581 26.7445 98.2581 27.7133V42H92.7208Z" fill="#E5FF3C"/>
<path d="M45.2521 42.4589C42.9576 42.4589 40.9691 41.9541 39.2865 40.9446C37.6039 39.935 36.2986 38.5226 35.3707 36.7075C34.4529 34.8923 33.994 32.7712 33.994 30.3442C33.994 27.9172 34.4529 25.791 35.3707 23.9657C36.2986 22.1403 37.6039 20.7229 39.2865 19.7133C40.9691 18.7038 42.9576 18.199 45.2521 18.199C47.5465 18.199 49.535 18.7038 51.2176 19.7133C52.9002 20.7229 54.2004 22.1403 55.1182 23.9657C56.0461 25.791 56.5101 27.9172 56.5101 30.3442C56.5101 32.7712 56.0461 34.8923 55.1182 36.7075C54.2004 38.5226 52.9002 39.935 51.2176 40.9446C49.535 41.9541 47.5465 42.4589 45.2521 42.4589ZM45.2827 38.023C46.5267 38.023 47.5669 37.6814 48.4031 36.9981C49.2393 36.3047 49.8613 35.3767 50.2692 34.2142C50.6873 33.0517 50.8964 31.7566 50.8964 30.3289C50.8964 28.8911 50.6873 27.5909 50.2692 26.4284C49.8613 25.2557 49.2393 24.3226 48.4031 23.6292C47.5669 22.9357 46.5267 22.589 45.2827 22.589C44.008 22.589 42.9474 22.9357 42.101 23.6292C41.2648 24.3226 40.6377 25.2557 40.2196 26.4284C39.8117 27.5909 39.6077 28.8911 39.6077 30.3289C39.6077 31.7566 39.8117 33.0517 40.2196 34.2142C40.6377 35.3767 41.2648 36.3047 42.101 36.9981C42.9474 37.6814 44.008 38.023 45.2827 38.023Z" fill="#E5FF3C"/>
<path d="M75.4871 18.5049L67.1201 42H61.0015L52.6345 18.5049H58.5388L63.9384 35.958H64.1832L69.598 18.5049H75.4871Z" fill="#E5FF3C"/>
<path d="M133.016 42.6119C131.528 42.6119 130.187 42.3467 128.994 41.8165C127.811 41.276 126.872 40.4806 126.179 39.4303C125.496 38.3799 125.154 37.0848 125.154 35.545C125.154 34.2193 125.399 33.1231 125.888 32.2563C126.378 31.3895 127.046 30.6961 127.892 30.176C128.739 29.6559 129.692 29.2633 130.753 28.9982C131.823 28.7229 132.93 28.524 134.072 28.4016C135.449 28.2589 136.565 28.1314 137.422 28.0192C138.278 27.8969 138.9 27.7133 139.288 27.4686C139.686 27.2136 139.884 26.821 139.884 26.2908V26.199C139.884 25.0467 139.543 24.1544 138.86 23.5221C138.176 22.8899 137.192 22.5738 135.907 22.5738C134.551 22.5738 133.475 22.8695 132.68 23.4609C131.895 24.0524 131.364 24.7509 131.089 25.5565L125.919 24.8223C126.327 23.3947 127 22.2015 127.938 21.243C128.876 20.2742 130.023 19.5502 131.38 19.0709C132.736 18.5814 134.235 18.3367 135.877 18.3367C137.009 18.3367 138.136 18.4693 139.257 18.7344C140.379 18.9995 141.404 19.438 142.332 20.0499C143.26 20.6515 144.004 21.4724 144.565 22.5126C145.136 23.5527 145.422 24.8529 145.422 26.4131V42.1377H140.099V38.9102H139.915C139.579 39.5628 139.104 40.1747 138.493 40.7457C137.891 41.3066 137.131 41.7604 136.213 42.1071C135.306 42.4436 134.24 42.6119 133.016 42.6119ZM134.454 38.5431C135.566 38.5431 136.53 38.3238 137.345 37.8853C138.161 37.4366 138.788 36.8452 139.227 36.111C139.675 35.3767 139.9 34.5762 139.9 33.7094V30.9408C139.726 31.0836 139.431 31.2162 139.013 31.3385C138.605 31.4609 138.146 31.568 137.636 31.6597C137.126 31.7515 136.621 31.8331 136.122 31.9045C135.622 31.9759 135.189 32.0371 134.821 32.088C133.995 32.2002 133.256 32.3838 132.603 32.6387C131.951 32.8936 131.436 33.2506 131.059 33.7094C130.681 34.1581 130.493 34.7394 130.493 35.4532C130.493 36.473 130.865 37.2429 131.609 37.763C132.354 38.283 133.302 38.5431 134.454 38.5431Z" fill="#E5FF3C"/>
<path d="M154.951 14.2222C151.707 22.8528 150.098 29.4953 150.098 36.7886C150.098 44.0819 159.942 40.4904 161.731 37.9785" stroke="#E5FF3C" stroke-width="4.74815"/>
<path d="M147.442 20.4116L157.383 20.4113" stroke="#E5FF3C" stroke-width="4.74815" stroke-linecap="square"/>
</svg>
